# xmcd
#
# Track frame offsets: 
#        183
#        14268
#        34145
#
# Disc length: 777 seconds
#
# Revision: 1
# Processed by: cddbd v1.5.2PL0 Copyright (c) Steve Scherf et al.
# Submitted via: ExactAudioCopy v1.2
#
DISCID=1a030703
DTITLE=A - Foghorn
DYEAR=1998
DGENRE=Punk Rock
TTITLE0=Foghorn
TTITLE1=Last Girl
TTITLE2=A Demolished House
EXTD=
EXTT0=
EXTT1=
EXTT2=
PLAYORDER=
